<?xml version="1.0" encoding="utf-8"?>
<!-- Generator: Adobe Illustrator 19.2.0, SVG Export Plug-In . SVG Version: 6.00 Build 0)  -->
<svg version="1.1" id="Calque_1" xmlns="http://www.w3.org/2000/svg" xmlns:xlink="http://www.w3.org/1999/xlink" x="0px" y="0px"
	 viewBox="0 0 20 240" style="enable-background:new 0 0 20 240;" xml:space="preserve" width="20px" height="240px" preserveAspectRatio="none">
<style type="text/css">
	.st0{fill:#FFFFFF;}
</style>
<g id="Calque_2">
	<path class="st0" d="M19.7,157.7c0-1.1-0.1-2.2-0.2-3.3c-0.1-0.5-0.2-1-0.3-1.5c-0.3-1-1-1.6-1.8-1.8c-0.5-0.1-0.9-0.1-1.4-0.2
		c-1.9-0.1-3.8-0.2-5.7-0.2h-0.1c-0.2,0-0.4,0-0.6,0c-0.3,0-0.5,0-0.8,0c-1.3,0-2.6,0.1-3.8,0.1c-0.7,0-1.4,0.1-2.1,0.1
		c-0.5,0-0.9,0.2-1.3,0.5c-0.6,0.4-0.9,1.1-1.1,1.9c-0.1,0.6-0.2,1.1-0.3,1.7c-0.1,0.9-0.1,1.9-0.1,2.9v0.1c0,0.9,0,1.8,0,2.7
		c0,0.1,0,0.1,0,0.2c0,1.1,0.1,2.2,0.2,3.3c0.1,0.7,0.2,1.3,0.5,1.9c0.3,0.8,0.9,1.2,1.5,1.4c0.4,0.1,0.9,0.2,1.4,0.2
		c2.1,0.2,4.2,0.2,6.3,0.2c1.3,0,2.6,0,3.8-0.1c0.7,0,1.4-0.1,2.1-0.1c0.5,0,1-0.1,1.6-0.2c0.9-0.2,1.6-0.9,1.9-2.1
		c0.2-0.6,0.3-1.2,0.3-1.8c0.1-0.9,0.1-1.9,0.1-2.9v-0.1c0-0.9,0-1.8,0-2.7C19.7,157.8,19.7,157.7,19.7,157.7z M7.4,162.5
		c0-2.3,0-4.6,0-6.9c2.2,1.1,4.3,2.3,6.5,3.4C11.7,160.2,9.6,161.3,7.4,162.5z"/>
</g>
<g id="Layer_1">
	<path id="White_2_" class="st0" d="M18,0H1C0.5,0,0,0.5,0,1v17c0,0.6,0.5,1,1,1h9.1v-7.4H7.7V8.8h2.5V6.7c0-2.5,1.5-3.8,3.7-3.8
		c1,0,1.9,0.1,2.2,0.1v2.6h-1.5c-1.2,0-1.4,0.6-1.4,1.4v1.8H16l-0.4,2.9h-2.5V19H18c0.6,0,1-0.5,1-1V1C19,0.5,18.5,0,18,0z"/>
	<path class="st0" d="M18,31.7c-0.7,0.3-1.4,0.5-2.1,0.6c0.8-0.5,1.3-1.2,1.6-2c-0.7,0.4-1.5,0.7-2.3,0.9c-0.7-0.7-1.6-1.2-2.7-1.2
		c-2,0-3.7,1.7-3.7,3.7c0,0.3,0,0.6,0.1,0.8c-3.1-0.2-5.8-1.6-7.6-3.9c-0.3,0.5-0.5,1.2-0.5,1.9c0,1.3,0.7,2.4,1.6,3.1
		c-0.6,0-1.2-0.2-1.7-0.5l0,0c0,1.8,1.3,3.3,3,3.6c-0.3,0.1-0.6,0.1-1,0.1c-0.2,0-0.5,0-0.7-0.1c0.5,1.5,1.8,2.5,3.4,2.6
		c-1.3,1-2.9,1.6-4.6,1.6C0.6,43,0.3,43,0,43c1.6,1,3.6,1.7,5.7,1.7c6.8,0,10.5-5.6,10.5-10.5c0-0.2,0-0.3,0-0.5
		C16.9,33.1,17.5,32.5,18,31.7z"/>
	<path class="st0" d="M16.8,68h-1.7c0.1,0.5,0.2,1,0.2,1.5c0,3.2-2.6,5.8-5.8,5.8s-5.8-2.6-5.8-5.8c0-0.5,0.1-1,0.2-1.5H2.2v8
		c0,0.4,0.3,0.7,0.7,0.7h13.2c0.4,0,0.7-0.3,0.7-0.7C16.8,76,16.8,68,16.8,68z M16.8,62.9c0-0.4-0.3-0.7-0.7-0.7h-2.2
		c-0.4,0-0.7,0.3-0.7,0.7v2.2c0,0.4,0.3,0.7,0.7,0.7h2.2c0.4,0,0.7-0.3,0.7-0.7V62.9z M9.5,65.8c-2,0-3.7,1.6-3.7,3.7
		c0,2,1.6,3.7,3.7,3.7s3.7-1.6,3.7-3.7C13.2,67.5,11.5,65.8,9.5,65.8 M16.8,79H2.2C1,79,0,78,0,76.8V62.2C0,61,1,60,2.2,60h14.6
		c1.2,0,2.2,1,2.2,2.2v14.6C19,78,18,79,16.8,79"/>
	<path class="st0" d="M17.6,90H1.4C0.6,90,0,90.6,0,91.4v16.3c0,0.8,0.6,1.4,1.4,1.4h16.2c0.8,0,1.4-0.6,1.4-1.4V91.4
		C19,90.6,18.4,90,17.6,90z M5.6,106.2H2.8v-9.1h2.8V106.2z M4.2,95.9c-0.9,0-1.6-0.7-1.6-1.6s0.7-1.6,1.6-1.6s1.6,0.7,1.6,1.6
		C5.9,95.2,5.1,95.9,4.2,95.9z M16.2,106.2h-2.8v-4.4c0-1.1,0-2.4-1.5-2.4s-1.7,1.1-1.7,2.3v4.5H7.4v-9.1h2.7v1.2l0,0
		c0.4-0.7,1.3-1.5,2.7-1.5c2.9,0,3.4,1.9,3.4,4.3V106.2z"/>
	<path class="st0" d="M9.5,120c-5.2,0-9.5,4.3-9.5,9.5s4.3,9.5,9.5,9.5s9.5-4.3,9.5-9.5S14.7,120,9.5,120z M9.5,137.9
		c-0.9,0-1.7-0.1-2.5-0.4c0.3-0.6,0.9-1.5,1-2.2c0.1-0.4,0.5-2,0.5-2c0.3,0.5,1.1,1,1.9,1c2.5,0,4.4-2.3,4.4-5.3
		c0-2.8-2.3-4.9-5.2-4.9c-3.6,0-5.6,2.4-5.6,5.1c0,1.2,0.7,2.8,1.7,3.3c0.2,0.1,0.2,0,0.3-0.1c0-0.1,0.2-0.7,0.2-1
		c0-0.1,0-0.2-0.1-0.2c-0.3-0.4-0.6-1.2-0.6-1.9c0-1.9,1.4-3.7,3.8-3.7c2.1,0,3.5,1.4,3.5,3.4c0,2.3-1.2,3.9-2.7,3.9
		c-0.8,0-1.4-0.7-1.3-1.5c0.2-1,0.7-2.1,0.7-2.8c0-0.6-0.3-1.2-1.1-1.2s-1.5,0.9-1.5,2.1c0,0.7,0.3,1.3,0.3,1.3s-0.8,3.5-1,4.2
		s-0.1,1.8,0,2.4c-3.1-1.2-5.4-4.3-5.4-7.9c0-4.7,3.8-8.4,8.4-8.4s8.4,3.8,8.4,8.4C17.6,134.1,14.2,137.9,9.5,137.9z"/>
</g>
</svg>
